{"title":"Wanted 2009(Music Vidoes)BRrip Acc 5.1 [TG ENCODER]","uid":11081581,"size":479215065,"categoryP":"video","categoryS":"music_videos","magnet":"?xt=urn:btih:a7001f213b378c9ad941a3b08d9198b7471c63e9&amp;dn=Wanted+2009%28Music+Vidoes%29BRrip+Acc+5.1+%5BTG+ENCODER%5D&amp;tr=udp%3A%2F%2Ftracker.openbittorrent.com%3A80&amp;tr=udp%3A%2F%2Fopen.demonii.com%3A1337&amp;tr=udp%3A%2F%2Ftracker.coppersurfer.tk%3A6969&amp;tr=udp%3A%2F%2Fexodus.desync.com%3A6969","seeders":0,"leechers":0,"uploader":"nasifhasan","files":8,"time":1411414491,"description":"Wanted 2009(Music Vidoes)BRrip Acc 5.1 [TG ENCODERS]\n\n[IMG]http://i.imgur.com/EBw5SEs.jpg[/IMG]\n\n[IMG]http://i.imgur.com/JTqxKPA.jpg[/IMG]\n\nMusic Video Tracklist:\n\n1.Love Me Love Me [TG ENCODERS]\n2.Jalwa Jalwa [TG ENCODERS]\n3.Le Le Mazaa Le [TG ENCODERS]\n4.Tose Pyaar Karte Hai [TG ENCODERS]\n5.Dil Leke [TG ENCODERS]\n\n\nMedia Information:\n\nFormat : Matroska\nFormat version : Version 4 / Version 2\nOverall bit rate : 3 586 Kbps\nMovie name : TG ENCODERS\nEncoded date : UTC 2014-09-18 08:41:36\nWriting application : mkvmerge v7.2.0 ('On Every Street') 32bit built on Sep 13 2014 15:42:11\nWriting library : libebml v1.3.0 + libmatroska v1.4.1\n\nVideo\nID : 1\nFormat : AVC\nFormat/Info : Advanced Video Codec\nFormat profile : &lt;a class=&quot;__cf_email__&quot; href=&quot;/cdn-cgi/l/email-protection&quot; data-cfemail=&quot;cc84a5aba48c80f8e2fd&quot;&gt;[email&amp;#160;protected]&lt;/a&gt;&lt;script data-cfhash='f9e31' type=&quot;text/javascript&quot;&gt;\n/* &lt;![CDATA[ */!function(){try{var t=&quot;currentScript&quot;in document?document.currentScript:function(){for(var t=document.getElementsByTagName(&quot;script&quot;),e=t.length;e--;)if(t[e].getAttribute(&quot;data-cfhash&quot;))return t[e]}();if(t&amp;&amp;t.previousSibling){var e,r,n,i,c=t.previousSibling,a=c.getAttribute(&quot;data-cfemail&quot;);if(a){for(e=&quot;&quot;,r=parseInt(a.substr(0,2),16),n=2;a.length-n;n+=2)i=parseInt(a.substr(n,2),16)^r,e+=String.fromCharCode(i);e=document.createTextNode(e),c.parentNode.replaceChild(e,c)}t.parentNode.removeChild(t);}}catch(u){}}()/* ]]&gt; */&lt;/script&gt;\nFormat settings, CABAC : Yes\nFormat settings, ReFrames : 8 frames\nCodec ID : V_MPEG4/ISO/AVC\nDuration : 4mn 44s\nBit rate : 3 291 Kbps\nWidth : 1 280 pixels\nHeight : 544 pixels\nDisplay aspect ratio : 2.35:1\nFrame rate : 23.976 fps\nColor space : YUV\nChroma subsampling : 4:2:0\nBit depth : 8 bits\nScan type : Progressive\nBits/(Pixel*Frame) : 0.197\nStream size : 112 MiB (92%)\nTitle : TG ENCODERS\nLanguage : English\nDefault : No\nForced : No\n\nAudio\nID : 2\nFormat : AC-3\nFormat/Info : Audio Coding 3\nMode extension : CM (complete main)\nFormat settings, Endianness : Big\nCodec ID : A_AC3\nDuration : 4mn 44s\nBit rate mode : Constant\nBit rate : 224 Kbps\nChannel(s) : 6 channels\nChannel positions : Front: L C R, Side: L R, LFE\nSampling rate : 48.0 KHz\nBit depth : 16 bits\nCompression mode : Lossy\nDelay relative to video : 30ms\nStream size : 7.59 MiB (6%)\nTitle : TG ENCODERS\nLanguage : English\nDefault : Yes\nForced : No\n\n\nScreenshot:\n\n[IMG]http://i.imgur.com/SHT0Dwi.jpg[/IMG]\n\n[IMG]http://i.imgur.com/uYRsh3G.jpg[/IMG]\n\n[IMG]http://i.imgur.com/LItOp39.jpg[/IMG]\n\n[IMG]http://i.imgur.com/O52XhZ2.jpg[/IMG]\n\n[IMG]http://i.imgur.com/3088q2V.jpg[/IMG]\n\n[IMG]http://i.imgur.com/Z4PjCpR.jpg[/IMG]\n\n[IMG]http://i.imgur.com/bYxwMW7.jpg[/IMG]\n\n[IMG]http://i.imgur.com/eKEaPZp.jpg[/IMG]\n\n[IMG]http://i.imgur.com/dk7LQYR.jpg[/IMG]\n\n[color=green][b]Seedbox seeding 24x7 @ 1Gbps \n[/b][/color]\n\n[url=https://www.ultraseedbox.com/aff.php?aff=270] [img]http://i.imgur.com/A4if5TP.png[/img] [/url]\n\n[IMG]http://i.imgur.com/VkQzViC.png[/IMG][/url]\n","torrent":{"xt":"urn:btih:a7001f213b378c9ad941a3b08d9198b7471c63e9","amp;dn":"Wanted+2009%28Music+Vidoes%29BRrip+Acc+5.1+%5BTG+ENCODER%5D","amp;tr":["udp%3A%2F%2Ftracker.openbittorrent.com%3A80","udp%3A%2F%2Fopen.demonii.com%3A1337","udp%3A%2F%2Ftracker.coppersurfer.tk%3A6969","udp%3A%2F%2Fexodus.desync.com%3A6969"],"infoHash":"a7001f213b378c9ad941a3b08d9198b7471c63e9","infoHashBuffer":{"type":"Buffer","data":[167,0,31,33,59,55,140,154,217,65,163,176,141,145,152,183,71,28,99,233]},"announce":[],"urlList":[]}}